HIERARCHY
ROOT Hips
{
	OFFSET -0.001795 -0.223333 0.028219
	CHANNELS 6 Xposition Yposition Zposition Zrotation Yrotation Xrotation 
	JOINT LeftUpLeg
	{
		OFFSET 0.069520 -0.091406 -0.006815
		CHANNELS 3 Zrotation Yrotation Xrotation
		JOINT LeftLeg
		{
			OFFSET 0.034277 -0.375199 -0.004496
			CHANNELS 3 Zrotation Yrotation Xrotation
			JOINT LeftFoot
			{
				OFFSET -0.013596 -0.397961 -0.043693
				CHANNELS 3 Zrotation Yrotation Xrotation
				JOINT LeftToe
				{
					OFFSET 0.026358 -0.055791 0.119288
					CHANNELS 3 Zrotation Yrotation Xrotation
					End Site
					{
						OFFSET 0.000000 0.000000 0.000000
					}
				}
			}
		}
	}
	JOINT RightUpLeg
	{
		OFFSET -0.067670 -0.090522 -0.004320
		CHANNELS 3 Zrotation Yrotation Xrotation
		JOINT RightLeg
		{
			OFFSET -0.038290 -0.382569 -0.008850
			CHANNELS 3 Zrotation Yrotation Xrotation
			JOINT RightFoot
			{
				OFFSET 0.015774 -0.398415 -0.042312
				CHANNELS 3 Zrotation Yrotation Xrotation
				JOINT RightToe
				{
					OFFSET -0.025372 -0.048144 0.123348
					CHANNELS 3 Zrotation Yrotation Xrotation
					End Site
					{
						OFFSET 0.000000 0.000000 0.000000
					}
				}
			}
		}
	}
	JOINT Spine
	{
		OFFSET -0.002533 0.108963 -0.026696
		CHANNELS 3 Zrotation Yrotation Xrotation
		JOINT Spine1
		{
			OFFSET 0.005487 0.135180 0.001092
			CHANNELS 3 Zrotation Yrotation Xrotation
			JOINT Spine2
			{
				OFFSET 0.001457 0.052922 0.025425
				CHANNELS 3 Zrotation Yrotation Xrotation
				JOINT Neck
				{
					OFFSET -0.002778 0.213870 -0.042857
					CHANNELS 3 Zrotation Yrotation Xrotation
					JOINT Head
					{
						OFFSET 0.005152 0.064970 0.051349
						CHANNELS 3 Zrotation Yrotation Xrotation
						End Site
						{
							OFFSET 0.000000 0.000000 0.000000
						}
					}
				}
				JOINT LeftShoulder
				{
					OFFSET 0.078845 0.121749 -0.034090
					CHANNELS 3 Zrotation Yrotation Xrotation
					JOINT LeftArm
					{
						OFFSET 0.090977 0.030469 -0.008868
						CHANNELS 3 Zrotation Yrotation Xrotation
						JOINT LeftForeArm
						{
							OFFSET 0.259612 -0.012772 -0.027456
							CHANNELS 3 Zrotation Yrotation Xrotation
							JOINT LeftHand
							{
								OFFSET 0.249234 0.008986 -0.001171
								CHANNELS 3 Zrotation Yrotation Xrotation
								End Site
								{
									OFFSET 0.000000 0.000000 0.000000
								}
							}
						}
					}
				}
				JOINT RightShoulder
				{
					OFFSET -0.081759 0.118833 -0.038615
					CHANNELS 3 Zrotation Yrotation Xrotation
					JOINT RightArm
					{
						OFFSET -0.096012 0.032551 -0.009143
						CHANNELS 3 Zrotation Yrotation Xrotation
						JOINT RightForeArm
						{
							OFFSET -0.253742 -0.013329 -0.021401
							CHANNELS 3 Zrotation Yrotation Xrotation
							JOINT RightHand
							{
								OFFSET -0.255298 0.007772 -0.005559
								CHANNELS 3 Zrotation Yrotation Xrotation
								End Site
								{
									OFFSET 0.000000 0.000000 0.000000
								}
							}
						}
					}
				}
			}
		}
	}
}
MOTION
Frames: 15
Frame Time: 0.050000
0.000000 0.936810 0.000000 -3.470475 11.462101 -4.762605 2.680188 0.377792 10.383685 -3.334581 0.291306 -3.632174 8.811685 17.465603 3.077881 0.000000 0.000000 0.000000 -5.631478 0.519069 -16.938977 2.097404 -0.341613 16.071271 -3.648100 -10.083219 9.009951 0.000000 0.000000 0.000000 3.206713 -0.242545 3.706500 2.624645 -1.273223 -0.018082 -6.037165 0.268521 11.547181 13.105789 -6.615109 -15.862903 0.000000 0.000000 0.000000 -17.618636 -11.174476 2.333069 -51.605148 -2.342872 -5.359473 -5.201772 -41.550206 2.842240 0.000000 0.000000 0.000000 13.979666 4.265025 2.418043 59.636974 10.127231 -1.331360 1.994467 46.636703 4.125794 0.000000 0.000000 0.000000 
-0.005131 0.935399 0.020439 -3.427894 9.963687 -3.861266 2.173857 0.530854 11.877976 -3.651355 0.310957 -5.354822 11.884924 22.635056 3.622675 0.000000 0.000000 0.000000 -4.492416 0.824177 -18.594505 -0.201937 0.331861 13.451388 -2.797663 -8.739787 10.885579 0.000000 0.000000 0.000000 4.054414 -0.164473 2.270204 2.588456 -1.261385 0.056659 -7.039946 -0.207457 12.018316 14.221376 -6.921491 -17.969121 0.000000 0.000000 0.000000 -15.855996 -12.508867 3.422173 -52.664006 -5.753132 -4.189071 -0.645446 -44.124891 1.364972 0.000000 0.000000 0.000000 14.108501 3.807016 1.983952 59.352252 9.649286 -1.607669 0.537687 47.376698 3.438299 0.000000 0.000000 0.000000 
-0.012029 0.932857 0.042937 -2.877636 9.339442 -3.850274 2.272092 0.580632 12.940977 -3.848660 0.332509 -4.629151 12.195338 23.219322 4.757158 0.000000 0.000000 0.000000 -3.734596 0.925681 -17.088690 -1.431737 0.592413 11.104251 -0.472764 -4.490138 11.767769 0.000000 0.000000 0.000000 4.450321 -0.139396 1.871083 3.078208 -1.461196 -0.393100 -7.868129 -1.198603 13.018500 11.377202 -4.888642 -19.714627 0.000000 0.000000 0.000000 -15.517759 -13.385591 4.205197 -53.419405 -9.896061 -2.580115 2.950881 -44.588275 0.156042 0.000000 0.000000 0.000000 13.981671 2.247981 0.988655 60.021887 9.118664 -1.976776 1.988931 50.641167 4.343933 0.000000 0.000000 0.000000 
-0.020963 0.931463 0.066131 -2.642700 9.700971 -4.379044 2.601736 0.577834 14.644324 -3.980291 0.340804 -4.132110 13.031236 24.462666 4.416079 0.000000 0.000000 0.000000 -3.517619 0.911658 -16.277464 -1.095105 0.522358 11.582821 -0.392830 -4.651271 13.292124 0.000000 0.000000 0.000000 4.700608 -0.087101 1.287547 3.413132 -1.768418 1.020260 -7.914869 -3.280733 12.835494 10.980170 -4.937139 -19.436898 0.000000 0.000000 0.000000 -16.116033 -15.293449 5.636263 -52.328279 -13.955403 -0.799964 9.751739 -47.027542 -2.455268 0.000000 0.000000 0.000000 13.674038 3.293233 1.129291 58.593161 9.822587 -1.652270 -1.164668 51.439732 2.519902 0.000000 0.000000 0.000000 
-0.031484 0.932277 0.088554 -2.619022 10.021943 -4.058487 3.456612 0.429509 14.579305 -3.933936 0.343391 -2.514800 12.577559 23.706232 3.987012 0.000000 0.000000 0.000000 -2.887270 0.966320 -15.485245 -0.890535 0.468901 11.603443 -0.789560 -5.223121 12.740300 0.000000 0.000000 0.000000 4.916484 -0.086855 1.182563 4.120235 -2.090548 0.671885 -8.157208 -5.099274 12.862260 10.233652 -4.806114 -18.805238 0.000000 0.000000 0.000000 -16.796799 -16.857224 6.899488 -50.694324 -20.538497 1.955706 17.776296 -48.105636 -5.793697 0.000000 0.000000 0.000000 14.642106 4.251291 1.277197 56.384578 10.376754 -1.436208 -5.376817 53.019534 0.221279 0.000000 0.000000 0.000000 
-0.042908 0.934874 0.109107 -2.812212 9.810409 -3.599440 4.038932 0.342267 14.526741 -3.827880 0.339119 -1.626479 12.697033 23.923366 4.775566 0.000000 0.000000 0.000000 -1.904941 1.093929 -15.055758 -0.590501 0.405655 11.823110 -0.887714 -5.311433 12.161947 0.000000 0.000000 0.000000 5.285643 -0.069809 0.822565 4.994874 -2.514739 0.533797 -8.067440 -6.236302 13.172916 9.518546 -4.413549 -19.449404 0.000000 0.000000 0.000000 -16.238885 -19.560956 8.594722 -49.423290 -27.790630 4.924600 28.078583 -44.819489 -9.392071 0.000000 0.000000 0.000000 13.878987 6.148412 1.978438 54.401813 12.536482 -0.463806 -11.918690 52.930109 -3.221746 0.000000 0.000000 0.000000 
-0.054641 0.937676 0.127869 -2.573568 9.583551 -2.637875 4.762510 0.219835 13.410719 -4.526387 0.395604 -0.215582 13.235064 24.784752 5.672521 0.000000 0.000000 0.000000 -1.437334 1.185760 -15.329720 -0.294544 0.352583 12.613499 -0.493546 -4.285296 10.814661 0.000000 0.000000 0.000000 5.441164 -0.056068 0.446525 5.578999 -2.800505 0.497972 -8.336475 -7.532937 12.760621 9.665702 -4.546666 -19.991490 0.000000 0.000000 0.000000 -14.846217 -22.053565 10.023039 -47.152590 -34.084443 7.288521 35.782059 -40.562403 -11.121372 0.000000 0.000000 0.000000 13.216227 8.045450 2.617844 52.458358 15.970174 1.087435 -17.821701 51.356273 -6.219189 0.000000 0.000000 0.000000 
-0.066224 0.940913 0.144595 -2.434674 8.701401 -1.523341 5.383243 0.139691 12.127254 -4.756626 0.428365 1.092349 14.026246 25.997487 8.117049 0.000000 0.000000 0.000000 -0.418947 1.353149 -15.435430 -0.018470 0.302027 12.185603 -0.335615 -3.896112 10.071352 0.000000 0.000000 0.000000 6.076982 -0.060008 0.161244 5.732189 -2.847794 0.352191 -8.442490 -8.534537 12.420896 9.589909 -4.439273 -21.247790 0.000000 0.000000 0.000000 -13.906947 -24.341349 11.362274 -43.306383 -40.046963 8.887026 39.778013 -34.307414 -10.373817 0.000000 0.000000 0.000000 11.904494 10.748226 3.619573 49.491219 19.964885 2.650926 -22.694662 49.011908 -8.419540 0.000000 0.000000 0.000000 
-0.077407 0.943672 0.159805 -2.036511 8.274697 -0.463799 5.650321 0.090502 10.737192 -5.303659 0.494832 2.688828 14.684843 26.927257 9.356981 0.000000 0.000000 0.000000 -0.035118 1.408814 -15.392024 -0.197077 0.336802 11.233244 -0.038839 -3.164854 9.400955 0.000000 0.000000 0.000000 6.186652 -0.065123 -0.024973 5.877847 -2.887223 0.149221 -8.662867 -8.869769 12.512788 9.995640 -4.544015 -22.346623 0.000000 0.000000 0.000000 -11.674765 -26.909993 12.264083 -39.959052 -45.155215 9.984742 42.946897 -27.942775 -9.062843 0.000000 0.000000 0.000000 10.565058 13.092431 4.589132 45.987549 24.372907 4.024464 -26.036956 46.252566 -9.408110 0.000000 0.000000 0.000000 
-0.088032 0.945917 0.173781 -1.811122 7.555914 0.453461 5.965206 0.041134 9.234072 -5.477974 0.535084 4.684143 15.010631 27.320414 11.338799 0.000000 0.000000 0.000000 0.855967 1.510324 -15.132680 -0.346992 0.353039 9.885099 0.145106 -2.737611 8.954265 0.000000 0.000000 0.000000 6.747707 -0.120635 0.252486 5.847610 -2.857574 0.108588 -8.896337 -9.452300 11.928202 10.304641 -4.742587 -22.571647 0.000000 0.000000 0.000000 -10.258559 -28.356614 12.802439 -36.618654 -49.351912 10.511647 44.761774 -22.427418 -7.415513 0.000000 0.000000 0.000000 8.500748 15.106807 5.280135 42.788214 28.980790 5.266573 -28.578980 43.604891 -10.005273 0.000000 0.000000 0.000000 
-0.097598 0.947377 0.186589 -1.502824 6.943548 1.240028 6.185854 -0.002034 7.716368 -6.135692 0.643664 6.123859 15.702044 28.249468 12.141619 0.000000 0.000000 0.000000 1.296318 1.558753 -15.009927 -0.249258 0.322121 9.083836 0.413442 -2.169348 8.684974 0.000000 0.000000 0.000000 7.092917 -0.203959 0.833448 5.624329 -2.749242 0.199607 -8.546824 -9.516200 11.207388 10.450511 -4.819582 -22.627096 0.000000 0.000000 0.000000 -8.624423 -30.091528 13.265168 -32.939750 -52.413506 10.256204 45.269842 -18.081795 -5.916436 0.000000 0.000000 0.000000 7.054402 16.948097 5.945303 39.269977 33.046706 5.982106 -30.525557 41.032633 -10.153750 0.000000 0.000000 0.000000 
-0.105527 0.948475 0.197944 -1.302849 5.987297 2.384838 6.330623 -0.040414 6.142431 -6.866807 0.787528 7.388446 15.953103 28.511524 13.591001 0.000000 0.000000 0.000000 2.060028 1.685424 -15.314465 -0.526380 0.381281 8.808070 0.444125 -2.011173 8.079788 0.000000 0.000000 0.000000 7.779492 -0.245747 0.788648 5.446348 -2.712166 0.782852 -8.737453 -9.327022 10.509067 10.540513 -4.868258 -22.520454 0.000000 0.000000 0.000000 -7.605620 -31.599273 13.747474 -29.209334 -53.960422 9.254594 44.462421 -13.578638 -4.176422 0.000000 0.000000 0.000000 5.843043 18.595425 6.526358 35.649795 36.605460 6.245648 -31.696184 38.872932 -10.013465 0.000000 0.000000 0.000000 
-0.111888 0.949436 0.207713 -1.078548 5.022532 3.353918 6.372311 -0.065852 4.898911 -7.433244 0.916493 8.126166 16.500381 29.202031 14.343506 0.000000 0.000000 0.000000 2.464536 1.828880 -16.155249 -0.448673 0.397244 9.415729 0.820508 -1.151200 7.611513 0.000000 0.000000 0.000000 8.185949 -0.345025 1.359506 5.208611 -2.612097 1.084114 -8.345996 -8.983299 10.152484 10.556417 -4.953026 -22.115891 0.000000 0.000000 0.000000 -7.178018 -32.639169 14.160597 -25.927601 -54.924743 8.132152 43.719023 -11.346469 -3.322564 0.000000 0.000000 0.000000 5.101360 20.300931 7.142052 32.048106 39.272191 6.005344 -32.701864 37.688134 -10.040141 0.000000 0.000000 0.000000 
-0.116915 0.950266 0.216028 -0.842161 3.995397 4.217344 6.365469 -0.087868 3.772521 -7.903747 1.041785 8.745489 16.795003 29.482328 15.542584 0.000000 0.000000 0.000000 2.727762 1.941873 -16.804849 -0.345762 0.414647 10.129380 0.945696 -0.714340 6.905228 0.000000 0.000000 0.000000 8.484395 -0.413556 1.678231 4.946970 -2.547035 1.916228 -7.966554 -9.018140 9.470490 10.323974 -4.892484 -21.886739 0.000000 0.000000 0.000000 -6.700331 -33.006599 14.316382 -24.045364 -55.414104 7.511639 43.100191 -9.626699 -2.644929 0.000000 0.000000 0.000000 4.081740 21.510345 7.476542 29.335135 41.487240 5.730757 -33.841477 37.013996 -10.320711 0.000000 0.000000 0.000000 
-0.121000 0.950372 0.222952 -0.670262 3.408679 4.622031 6.315384 -0.104144 2.967466 -8.421934 1.173107 9.407447 17.157141 29.944082 15.765598 0.000000 0.000000 0.000000 2.936767 2.055747 -17.515072 -0.370385 0.477535 11.532470 1.203061 0.032742 6.326664 0.000000 0.000000 0.000000 8.637177 -0.516910 2.425361 4.976277 -2.577991 2.201660 -7.681138 -9.043359 9.030593 10.136101 -4.950375 -20.992552 0.000000 0.000000 0.000000 -7.320062 -33.272379 14.724311 -22.797555 -55.048472 6.883420 42.116510 -9.430292 -2.509283 0.000000 0.000000 0.000000 3.871181 22.465093 7.790997 27.173626 42.518325 5.287153 -34.515323 38.111862 -10.963536 0.000000 0.000000 0.000000 
